<?xml version="1.0" encoding="UTF-8"?>
<svg version="1.1" xmlns="http://www.w3.org/2000/svg" width="512" height="512">
    <path d="M0 0 C1.01790619 0.00215515 2.03581238 0.0043103 3.08456421 0.00653076 C17.69363523 0.05620146 32.02575853 0.30709809 46.375 3.3125 C47.34985352 3.51117676 48.32470703 3.70985352 49.32910156 3.91455078 C86.24061921 11.63577862 120.90178362 25.97314294 151.375 48.3125 C152.2424585 48.94454346 152.2424585 48.94454346 153.12744141 49.58935547 C160.37723416 54.90780842 167.10620794 60.63229802 173.65625 66.78125 C175.95412963 68.92065518 178.29158807 70.9726899 180.6875 73 C183.94952617 75.83245894 186.76563412 78.88522849 189.55078125 82.18359375 C190.78419972 83.62302216 192.05413567 85.03182121 193.35546875 86.41015625 C205.65985595 99.47656379 215.47661398 114.78779807 224.375 130.3125 C224.80409668 131.06080078 225.23319336 131.80910156 225.67529297 132.58007812 C238.71070917 155.62033667 247.38567422 180.84839856 252.6875 206.75 C252.83485596 207.46889404 252.98221191 208.18778809 253.1340332 208.9284668 C256.10789088 224.57475609 256.74800362 240.04818046 256.6875 255.9375 C256.68534485 256.95540619 256.6831897 257.97331238 256.68096924 259.02206421 C256.63129854 273.63113523 256.38040191 287.96325853 253.375 302.3125 C253.07698486 303.77478027 253.07698486 303.77478027 252.77294922 305.26660156 C245.05172138 342.17811921 230.71435706 376.83928362 208.375 407.3125 C207.9536377 407.89080566 207.53227539 408.46911133 207.09814453 409.06494141 C201.77969158 416.31473416 196.05520198 423.04370794 189.90625 429.59375 C187.76684482 431.89162963 185.7148101 434.22908807 183.6875 436.625 C180.85504106 439.88702617 177.80227151 442.70313412 174.50390625 445.48828125 C173.06447784 446.72169972 171.65567879 447.99163567 170.27734375 449.29296875 C157.21093621 461.59735595 141.89970193 471.41411398 126.375 480.3125 C125.62669922 480.74159668 124.87839844 481.17069336 124.10742188 481.61279297 C101.06716333 494.64820917 75.83910144 503.32317422 49.9375 508.625 C49.21860596 508.77235596 48.49971191 508.91971191 47.7590332 509.0715332 C32.11274391 512.04539088 16.63931954 512.68550362 0.75 512.625 C-0.77685928 512.62176727 -0.77685928 512.62176727 -2.33456421 512.61846924 C-16.94363523 512.56879854 -31.27575853 512.31790191 -45.625 509.3125 C-47.08728027 509.01448486 -47.08728027 509.01448486 -48.57910156 508.71044922 C-85.49061921 500.98922138 -120.15178362 486.65185706 -150.625 464.3125 C-151.20330566 463.8911377 -151.78161133 463.46977539 -152.37744141 463.03564453 C-159.62723416 457.71719158 -166.35620794 451.99270198 -172.90625 445.84375 C-175.20412963 443.70434482 -177.54158807 441.6523101 -179.9375 439.625 C-183.18194163 436.80780994 -185.98495972 433.7707544 -188.76171875 430.49609375 C-191.63341684 427.13072848 -194.63054817 423.87983523 -197.609375 420.609375 C-202.625 414.89389535 -202.625 414.89389535 -202.625 412.3125 C-203.285 412.3125 -203.945 412.3125 -204.625 412.3125 C-206 410.43359375 -206 410.43359375 -207.625 407.75 C-210.01132913 403.86790993 -212.46879612 400.0783323 -215.08032227 396.34399414 C-235.12663002 367.36085412 -247.83223641 332.55087654 -253.1875 297.8125 C-253.31318359 297.02230469 -253.43886719 296.23210937 -253.56835938 295.41796875 C-254.93920838 286.64740604 -255.78404108 278.06239494 -255.828125 269.1796875 C-255.83871445 267.76016533 -255.83871445 267.76016533 -255.84951782 266.31196594 C-256.07741099 226.79597888 -256.07741099 226.79597888 -252.625 210.3125 C-252.42632324 209.33764648 -252.22764648 208.36279297 -252.02294922 207.35839844 C-244.30172138 170.44688079 -229.96435706 135.78571638 -207.625 105.3125 C-206.99295654 104.4450415 -206.99295654 104.4450415 -206.34814453 103.56005859 C-201.02969158 96.31026584 -195.30520198 89.58129206 -189.15625 83.03125 C-187.01684482 80.73337037 -184.9648101 78.39591193 -182.9375 76 C-180.10504106 72.73797383 -177.05227151 69.92186588 -173.75390625 67.13671875 C-172.31447784 65.90330028 -170.90567879 64.63336433 -169.52734375 63.33203125 C-156.46093621 51.02764405 -141.14970193 41.21088602 -125.625 32.3125 C-124.87669922 31.88340332 -124.12839844 31.45430664 -123.35742188 31.01220703 C-100.31716333 17.97679083 -75.08910144 9.30182578 -49.1875 4 C-48.46860596 3.85264404 -47.74971191 3.70528809 -47.0090332 3.5534668 C-31.36274391 0.57960912 -15.88931954 -0.06050362 0 0 Z "
          fill="#1AB4D5" transform="translate(255.625,-0.3125)"/>
    <path d="M0 0 C3.75307485 1.50122994 6.87723639 2.97735903 10.33203125 4.984375 C11.36521484 5.5825 12.39839844 6.180625 13.46289062 6.796875 C14.56826172 7.44140625 15.67363281 8.0859375 16.8125 8.75 C17.97965943 9.42735613 19.14697975 10.10443512 20.31445312 10.78125 C23.87910806 12.84936114 27.43998022 14.92392266 31 17 C32.03817871 17.60521484 33.07635742 18.21042969 34.14599609 18.83398438 C38.08504433 21.131173 42.02344511 23.42946389 45.96069336 25.72973633 C53.2526416 29.98799551 60.55965613 34.21957017 67.875 38.4375 C68.95595947 39.06084229 70.03691895 39.68418457 71.15063477 40.32641602 C76.58903137 43.46116816 82.02965209 46.59200536 87.47265625 49.71875 C98.48540661 56.05074854 109.45934363 62.43936974 120.375 68.9375 C132.44479483 76.12003156 144.6185953 83.10514266 156.82543945 90.05055237 C172.24917739 98.83081731 187.59923427 107.74104051 202.91577148 116.70678711 C208.32039013 119.8671492 213.73892189 123.00103629 219.17578125 126.10546875 C220.37829323 126.79355335 221.58076751 127.48170384 222.78320312 128.16992188 C225.0902262 129.4902577 227.40047827 130.80429182 229.71289062 132.11523438 C231.27233398 133.00758789 231.27233398 133.00758789 232.86328125 133.91796875 C233.78407471 134.44156982 234.70486816 134.9651709 235.65356445 135.50463867 C237.75741162 136.84540071 239.33707605 138.15594165 241 140 C234.45290225 144.54897816 227.66951141 148.57253463 220.72869873 152.48904419 C217.6183762 154.24451586 214.51461816 156.01153526 211.41015625 157.77734375 C210.7821814 158.13420761 210.15420654 158.49107147 209.50720215 158.85874939 C203.60441448 162.2166659 197.73555457 165.63144027 191.875 169.0625 C178.1890008 177.06940655 164.4489909 184.98175331 150.70898438 192.89550781 C135.11034959 201.88117414 119.54162208 210.91610142 104 220 C86.27238229 230.36158778 68.50230086 240.64719111 50.70898438 250.89550781 C47.43068947 252.78398488 44.15283862 254.6732311 40.875 256.5625 C39.81345703 257.17359619 38.75191406 257.78469238 37.65820312 258.41430664 C32.14752155 261.59067223 26.65052573 264.78819113 21.171875 268.01953125 C19.52276123 268.99007446 19.52276123 268.99007446 17.84033203 269.98022461 C15.74500122 271.21499017 13.65209772 272.45388694 11.56201172 273.69750977 C10.62631348 274.24850342 9.69061523 274.79949707 8.7265625 275.3671875 C7.90752441 275.85300293 7.08848633 276.33881836 6.24462891 276.83935547 C4 278 4 278 0 279 C0 186.93 0 94.86 0 0 Z "
          fill="#FEFEFE" transform="translate(135,116)"/>
    <path d="M0 0 C2.87746199 4.31619298 3.9415679 8.98086893 5.375 13.9375 C5.84135864 15.54927124 5.84135864 15.54927124 6.31713867 17.19360352 C8.21660746 23.89793133 9.93227141 30.60694469 11.3125 37.4375 C11.45929199 38.15478271 11.60608398 38.87206543 11.75732422 39.61108398 C14.73674485 55.25738802 15.37300591 70.73508149 15.3125 86.625 C15.31034485 87.64290619 15.3081897 88.66081238 15.30596924 89.70956421 C15.25629854 104.31863523 15.00540191 118.65075853 12 133 C11.70198486 134.46228027 11.70198486 134.46228027 11.39794922 135.95410156 C3.67672138 172.86561921 -10.66064294 207.52678362 -33 238 C-33.4213623 238.57830566 -33.84272461 239.15661133 -34.27685547 239.75244141 C-39.59530842 247.00223416 -45.31979802 253.73120794 -51.46875 260.28125 C-53.60815518 262.57912963 -55.6601899 264.91658807 -57.6875 267.3125 C-60.51995894 270.57452617 -63.57272849 273.39063412 -66.87109375 276.17578125 C-68.31052216 277.40919972 -69.71932121 278.67913567 -71.09765625 279.98046875 C-84.16406379 292.28485595 -99.47529807 302.10161398 -115 311 C-115.74830078 311.42909668 -116.49660156 311.85819336 -117.26757812 312.30029297 C-140.30783667 325.33570917 -165.53589856 334.01067422 -191.4375 339.3125 C-192.15639404 339.45985596 -192.87528809 339.60721191 -193.6159668 339.7590332 C-209.26225609 342.73289088 -224.73568046 343.37300362 -240.625 343.3125 C-241.64290619 343.31034485 -242.66081238 343.3081897 -243.70956421 343.30596924 C-258.31863523 343.25629854 -272.65075853 343.00540191 -287 340 C-288.46228027 339.70198486 -288.46228027 339.70198486 -289.95410156 339.39794922 C-326.86561921 331.67672138 -361.52678362 317.33935706 -392 295 C-392.57830566 294.5786377 -393.15661133 294.15727539 -393.75244141 293.72314453 C-401.00223416 288.40469158 -407.73120794 282.68020198 -414.28125 276.53125 C-416.57912963 274.39184482 -418.91658807 272.3398101 -421.3125 270.3125 C-424.55694163 267.49530994 -427.35995972 264.4582544 -430.13671875 261.18359375 C-433.00841684 257.81822848 -436.00554817 254.56733523 -438.984375 251.296875 C-444 245.58139535 -444 245.58139535 -444 243 C-444.66 243 -445.32 243 -446 243 C-447.375 241.12109375 -447.375 241.12109375 -449 238.4375 C-451.04774766 235.10938009 -453.10612068 231.80900074 -455.33203125 228.59765625 C-460.1947544 221.57006848 -464.62284914 214.39630101 -468.6875 206.875 C-469.13391846 206.06933594 -469.58033691 205.26367188 -470.0402832 204.43359375 C-473.05416271 198.71788542 -473.05416271 198.71788542 -472.76953125 194.9453125 C-472.51558594 194.30335938 -472.26164062 193.66140625 -472 193 C-467.32541176 197.67458824 -465.53741481 203.55102226 -465 210 C-464.34 210 -463.68 210 -463 210 C-461.5393715 212.64738916 -461 213.89448334 -461 217 C-460.34 217 -459.68 217 -459 217 C-458.87625 218.175625 -458.87625 218.175625 -458.75 219.375 C-458.5025 220.24125 -458.255 221.1075 -458 222 C-457.39929688 222.27070313 -456.79859375 222.54140625 -456.1796875 222.8203125 C-453.16102304 224.45406997 -452.12194254 226.57560279 -450.375 229.5 C-447.99842954 233.4931336 -447.99842954 233.4931336 -445 237 C-445 237.99 -445 238.98 -445 240 C-444.01 240.33 -443.02 240.66 -442 241 C-440.8125 243.5625 -440.8125 243.5625 -440 246 C-439.34 246 -438.68 246 -438 246 C-438 246.66 -438 247.32 -438 248 C-437.34 248 -436.68 248 -436 248 C-435.67 249.32 -435.34 250.64 -435 252 C-434.34 252 -433.68 252 -433 252 C-433 252.66 -433 253.32 -433 254 C-432.01 254.33 -431.02 254.66 -430 255 C-429.608125 255.70125 -429.21625 256.4025 -428.8125 257.125 C-426.6764478 260.51322073 -424.17268344 262.59845058 -421.12890625 265.16015625 C-418.44964252 267.47563004 -415.99840061 269.97078132 -413.54296875 272.51953125 C-411.86292628 274.21835505 -411.86292628 274.21835505 -409 276 C-409 276.66 -409 277.32 -409 278 C-408.41750488 278.27239502 -407.83500977 278.54479004 -407.23486328 278.82543945 C-405.02986056 279.9843064 -403.20373087 281.26276348 -401.2421875 282.79296875 C-400.53964844 283.33719482 -399.83710938 283.8814209 -399.11328125 284.44213867 C-398.37464844 285.01810791 -397.63601563 285.59407715 -396.875 286.1875 C-385.35716944 295.05937516 -373.61480628 302.78639527 -361 310 C-359.87078125 310.65484375 -358.7415625 311.3096875 -357.578125 311.984375 C-349.98678566 316.25214289 -342.25018459 319.38820538 -334.06054688 322.26611328 C-332.04538923 322.98383412 -330.04592899 323.73480882 -328.046875 324.49609375 C-309.98000273 331.27832278 -291.12149082 335.54791741 -272 338 C-271.32771866 338.08732895 -270.65543732 338.1746579 -269.96278381 338.26463318 C-264.39626147 338.93879585 -258.90900706 339.17383366 -253.3046875 339.203125 C-252.40295807 339.21022995 -251.50122864 339.2173349 -250.57217407 339.22465515 C-178.25295555 339.66492937 -112.8867047 315.74312734 -60.78027344 265.01660156 C-54.73670027 259.02294582 -49.20180195 252.74593611 -44 246 C-43.27425781 245.06800781 -42.54851562 244.13601563 -41.80078125 243.17578125 C-27.3274214 224.25685189 -15.63037092 204.16529893 -6.81835938 182.01855469 C-5.73906045 179.35636987 -4.54848964 176.74678381 -3.375 174.125 C17.63266192 123.15674641 18.04264082 58.76773504 -0.1796875 7.046875 C-0.9740998 4.09620076 -1.11798138 2.78805233 0 0 Z "
          fill="#0F93B7" transform="translate(497,169)"/>
    <path d="M0 0 C-3.625 3 -3.625 3 -7 3 C-7 3.66 -7 4.32 -7 5 C-8.00675781 5.40089844 -9.01351562 5.80179688 -10.05078125 6.21484375 C-38.88960999 17.81842738 -64.64106496 32.34115691 -88 53 C-88.8353125 53.72445312 -89.670625 54.44890625 -90.53125 55.1953125 C-102.25443614 65.51019381 -112.82458652 76.36765257 -122 89 C-122.6496875 89.84304687 -123.299375 90.68609375 -123.96875 91.5546875 C-146.1973154 120.79800509 -161.01917907 156.4905174 -168.5690918 192.29345703 C-169.27035446 195.48952894 -170.09270211 198.18265069 -171.578125 201.109375 C-173.14345192 204.29163303 -173.4557305 206.53902171 -173.625 210.0625 C-173.68816406 211.21105469 -173.75132812 212.35960937 -173.81640625 213.54296875 C-173.87699219 214.68378906 -173.93757812 215.82460937 -174 217 C-174.18565308 218.95850929 -174.37316825 220.91684291 -174.5625 222.875 C-177.10907119 257.13048982 -172.8922637 291.37441111 -161.72021484 323.85791016 C-160.96762253 326.09629827 -160.26808315 328.34584201 -159.58203125 330.60546875 C-159.35717041 331.34563232 -159.13230957 332.0857959 -158.90063477 332.84838867 C-158.48068724 334.23713072 -158.06303756 335.62657067 -157.64819336 337.0168457 C-156.71122289 340.07092804 -155.79129434 342.31305849 -154 345 C-153.875 348.1875 -153.875 348.1875 -154 351 C-157.83008061 349.08495969 -158.7066568 343.76469073 -160.1875 339.9375 C-160.78316772 338.40681885 -160.78316772 338.40681885 -161.39086914 336.84521484 C-167.84228535 319.89909854 -172.79906563 302.42577007 -175.5625 284.5 C-175.68818359 283.70980469 -175.81386719 282.91960937 -175.94335938 282.10546875 C-177.31420838 273.33490604 -178.15904108 264.74989494 -178.203125 255.8671875 C-178.21018463 254.92083939 -178.21724426 253.97449127 -178.22451782 252.99946594 C-178.45241099 213.48347888 -178.45241099 213.48347888 -175 197 C-174.80132324 196.02514648 -174.60264648 195.05029297 -174.39794922 194.04589844 C-166.67672138 157.13438079 -152.33935706 122.47321638 -130 92 C-129.36795654 91.1325415 -129.36795654 91.1325415 -128.72314453 90.24755859 C-123.40469158 82.99776584 -117.68020198 76.26879206 -111.53125 69.71875 C-109.39184482 67.42087037 -107.3398101 65.08341193 -105.3125 62.6875 C-102.48004106 59.42547383 -99.42727151 56.60936588 -96.12890625 53.82421875 C-94.68947784 52.59080028 -93.28067879 51.32086433 -91.90234375 50.01953125 C-78.83593621 37.71514405 -63.52470193 27.89838602 -48 19 C-47.25169922 18.57090332 -46.50339844 18.14180664 -45.73242188 17.69970703 C-9.09151626 -3.03050542 -9.09151626 -3.03050542 0 0 Z "
          fill="#149EBF" transform="translate(178,13)"/>
    <path d="M0 0 C20.61215645 2.98493068 42.55108674 18.94160282 59 31 C59.57830566 31.4213623 60.15661133 31.84272461 60.75244141 32.27685547 C68.00223416 37.59530842 74.73120794 43.31979802 81.28125 49.46875 C83.57912963 51.60815518 85.91658807 53.6601899 88.3125 55.6875 C91.57452617 58.51995894 94.39063412 61.57272849 97.17578125 64.87109375 C98.40919972 66.31052216 99.67913567 67.71932121 100.98046875 69.09765625 C120.22127636 89.53006214 135.17890382 115.52100242 146.125 141.25 C146.42051758 141.92877197 146.71603516 142.60754395 147.02050781 143.30688477 C148.82515897 147.72651731 149.12315316 151.26979897 149 156 C149.5992742 158.41731634 149.5992742 158.41731634 150.5 160.5625 C151.81912799 164.17926406 152.29919654 167.11044501 152 171 C150 170 150 170 149.01025391 167.56665039 C148.66913574 166.50438232 148.32801758 165.44211426 147.9765625 164.34765625 C147.595 163.17783203 147.2134375 162.00800781 146.8203125 160.80273438 C146.42585937 159.56845703 146.03140625 158.33417969 145.625 157.0625 C141.82144277 145.26513332 137.76274318 133.98628232 132 123 C131.55914062 122.15953125 131.11828125 121.3190625 130.6640625 120.453125 C127.32009248 114.2085843 123.72321722 108.14011016 119.98339844 102.1262207 C118.12770104 99.09725661 116.76582429 96.46285764 116 93 C114.06669397 91.90833725 114.06669397 91.90833725 112 91 C110 88 110 88 110 85 C108.515 84.505 108.515 84.505 107 84 C105.1328125 81.92578125 105.1328125 81.92578125 103.125 79.3125 C100.80407398 76.31927622 98.48360179 73.35969006 96 70.5 C94 68 94 68 94 66 C93.47019531 65.79890625 92.94039063 65.5978125 92.39453125 65.390625 C88.93823283 63.38337829 86.44788875 60.61353991 83.6875 57.75 C80.14129394 54.1187566 76.64279513 50.56841451 72.6875 47.375 C71.800625 46.59125 70.91375 45.8075 70 45 C70 44.01 70 43.02 70 42 C69.34 42 68.68 42 68 42 C68 41.34 68 40.68 68 40 C67.28199219 40.08121094 66.56398438 40.16242187 65.82421875 40.24609375 C62.08833749 39.92056053 60.62901304 38.48700215 57.8125 36.0625 C54.60095841 33.23659905 54.60095841 33.23659905 51 31 C51 30.34 51 29.68 51 29 C50.071875 28.7834375 50.071875 28.7834375 49.125 28.5625 C47 28 47 28 45 27 C45 26.34 45 25.68 45 25 C44.45472656 24.89429687 43.90945313 24.78859375 43.34765625 24.6796875 C40.46544196 23.84523611 38.06927582 22.56442024 35.4375 21.125 C34.48746094 20.61195312 33.53742188 20.09890625 32.55859375 19.5703125 C30 18 30 18 28.61328125 16.5546875 C26.04802373 14.08259914 22.88436368 12.63158657 19.75 11 C19.10675781 10.65710937 18.46351563 10.31421875 17.80078125 9.9609375 C12.01961229 6.91331925 6.08041404 4.39531462 0 2 C0 1.34 0 0.68 0 0 Z "
          fill="#16A3C6" transform="translate(348,17)"/>
    <path d="M0 0 C0.66 0.33 1.32 0.66 2 1 C1.37987481 3.73035701 0.75409113 6.45920764 0.125 9.1875 C-0.04902344 9.95642578 -0.22304687 10.72535156 -0.40234375 11.51757812 C-1.1252414 14.63674763 -1.83558314 17.59390272 -3.0390625 20.56640625 C-4.34455502 23.87259258 -4.89827004 27.26365027 -5.5 30.75 C-6.27417261 35.09407726 -7.056169 39.40419965 -8.125 43.6875 C-9.18447526 48.30190877 -9.47763806 52.93160911 -9.78125 57.6484375 C-9.91770808 59.73917021 -10.07996943 61.8285721 -10.28125 63.9140625 C-13.61375674 98.99795287 -9.1654491 134.5801058 2.27978516 167.85791016 C3.03237747 170.09629827 3.73191685 172.34584201 4.41796875 174.60546875 C4.64282959 175.34563232 4.86769043 176.0857959 5.09936523 176.84838867 C5.51931276 178.23713072 5.93696244 179.62657067 6.35180664 181.0168457 C7.28877711 184.07092804 8.20870566 186.31305849 10 189 C10.125 192.1875 10.125 192.1875 10 195 C6.16991939 193.08495969 5.2933432 187.76469073 3.8125 183.9375 C3.21683228 182.40681885 3.21683228 182.40681885 2.60913086 180.84521484 C-3.84228535 163.89909854 -8.79906563 146.42577007 -11.5625 128.5 C-11.75102539 127.31470703 -11.75102539 127.31470703 -11.94335938 126.10546875 C-13.31420838 117.33490604 -14.15904108 108.74989494 -14.203125 99.8671875 C-14.21018463 98.92083939 -14.21724426 97.97449127 -14.22451782 96.99946594 C-14.45337859 57.31569922 -14.45337859 57.31569922 -11 41 C-10.78537109 39.98260742 -10.57074219 38.96521484 -10.34960938 37.91699219 C-7.56497702 25.07930003 -4.19296189 12.44901517 0 0 Z "
          fill="#1198BB" transform="translate(14,169)"/>
    <path d="M0 0 C0.99 0.33 1.98 0.66 3 1 C1.65808594 2.14275391 1.65808594 2.14275391 0.2890625 3.30859375 C-16.2111167 17.38416328 -32.20564913 31.38524228 -45 49 C-45.6496875 49.84304687 -46.299375 50.68609375 -46.96875 51.5546875 C-70.72912833 82.813218 -84.49533189 120.03782222 -93 158 C-93.99 158 -94.98 158 -96 158 C-95.70996094 156.85724609 -95.70996094 156.85724609 -95.4140625 155.69140625 C-95.15367188 154.65886719 -94.89328125 153.62632812 -94.625 152.5625 C-94.24214844 151.04849609 -94.24214844 151.04849609 -93.8515625 149.50390625 C-93.21293157 146.87614502 -92.60929641 144.25044911 -92.03125 141.609375 C-87.45791995 120.91625315 -79.89244561 101.71428022 -70 83 C-69.54882812 82.14148438 -69.09765625 81.28296875 -68.6328125 80.3984375 C-63.93421098 71.70756018 -58.45683223 63.48678448 -52.67578125 55.484375 C-50.87464447 52.89650485 -50.87464447 52.89650485 -49.1171875 49.5625 C-47.11264709 46.00291927 -44.64309711 43.20721833 -41.8125 40.25 C-38.10804079 36.33311205 -34.60679723 32.35122498 -31.25 28.125 C-27.81158673 23.86210042 -24.26978644 20.39685233 -20 17 C-18.5978941 15.7989508 -17.20221773 14.590362 -15.8125 13.375 C-15.14476563 12.79234375 -14.47703125 12.2096875 -13.7890625 11.609375 C-12.37198128 10.33462071 -11.01720895 8.99064702 -9.6875 7.625 C-8 6 -8 6 -5 5 C-3.29413425 3.37347684 -1.6222454 1.70993434 0 0 Z "
          fill="#16A9CC" transform="translate(101,53)"/>
    <path d="M0 0 C1.41952217 -0.01058945 1.41952217 -0.01058945 2.86772156 -0.02139282 C42.43153661 -0.24956182 42.43153661 -0.24956182 58.8671875 3.203125 C59.85799316 3.40711914 60.84879883 3.61111328 61.86962891 3.82128906 C76.55254031 6.92550821 90.73490225 11.18029386 104.8671875 16.203125 C101.23224595 17.24553336 99.16047028 16.97823416 95.4921875 15.953125 C88.66481617 14.12406379 81.78510107 12.64606259 74.8671875 11.203125 C74.8671875 10.543125 74.8671875 9.883125 74.8671875 9.203125 C74.10277344 9.09355469 73.33835937 8.98398438 72.55078125 8.87109375 C66.6248862 7.99397571 60.78150716 6.98687608 54.9296875 5.703125 C20.91062252 -1.17047069 -14.49778301 1.58189509 -47.96875 9.86547852 C-49.1959375 10.16639404 -50.423125 10.46730957 -51.6875 10.77734375 C-53.30374268 11.18859497 -53.30374268 11.18859497 -54.95263672 11.6081543 C-58.40903172 12.25480213 -61.62432396 12.30407079 -65.1328125 12.203125 C-60.79864415 9.31367943 -56.1557708 8.50306441 -51.1328125 7.265625 C-50.061521 6.99983643 -48.99022949 6.73404785 -47.88647461 6.46020508 C-38.37276215 4.15716771 -28.83792159 2.44849004 -19.1328125 1.203125 C-18.46560684 1.11579605 -17.79840118 1.0284671 -17.11097717 0.93849182 C-11.39460774 0.24225009 -5.75538618 0.02856336 0 0 Z "
          fill="#16A1C3" transform="translate(243.1328125,-0.203125)"/>
    <path d="M0 0 C-3.625 3 -3.625 3 -7 3 C-7 3.66 -7 4.32 -7 5 C-8.00675781 5.40089844 -9.01351562 5.80179688 -10.05078125 6.21484375 C-30.62786503 14.49423383 -50.04268538 23.85947095 -68 37 C-68.66 36.67 -69.32 36.34 -70 36 C-69.2575 35.4225 -68.515 34.845 -67.75 34.25 C-65.0721339 32.15955685 -65.0721339 32.15955685 -63.234375 30.1171875 C-60.53929682 27.56345958 -57.67759482 25.79176018 -54.5 23.875 C-53.3759375 23.19179688 -52.251875 22.50859375 -51.09375 21.8046875 C-48 20 -48 20 -45.78125 18.9453125 C-43.94029932 18.08734842 -43.94029932 18.08734842 -42.625 16.56689453 C-40.89807245 14.9017171 -39.3746179 14.020161 -37.21875 12.984375 C-36.46787109 12.62327637 -35.71699219 12.26217773 -34.94335938 11.89013672 C-34.13705078 11.5138916 -33.33074219 11.13764648 -32.5 10.75 C-31.66791016 10.3595752 -30.83582031 9.96915039 -29.97851562 9.56689453 C-23.90577503 6.76855927 -17.75970882 4.22420908 -11.5 1.875 C-10.69369141 1.56788086 -9.88738281 1.26076172 -9.05664062 0.94433594 C-3.36933189 -1.12311063 -3.36933189 -1.12311063 0 0 Z M-72 37 C-71.34 37.33 -70.68 37.66 -70 38 C-71.98 38.99 -71.98 38.99 -74 40 C-73.34 39.01 -72.68 38.02 -72 37 Z "
          fill="#18A9CC" transform="translate(178,13)"/>
    <path d="M0 0 C2.80188638 0.58053973 5.48800732 0.92653699 8.3359375 1.15234375 C12.01501635 1.63484589 13.56506255 2.0689688 16.1484375 4.65234375 C8.0939433 3.84856886 0.17647988 2.51427986 -7.79296875 1.11328125 C-20.20278106 -1.01593111 -32.40850542 -1.58353225 -44.9765625 -1.59765625 C-46.15844147 -1.60016388 -46.15844147 -1.60016388 -47.36419678 -1.60272217 C-63.98167274 -1.6048241 -80.3022494 -0.32799881 -96.55810547 3.27197266 C-99.02630536 3.68132495 -101.35411431 3.71578677 -103.8515625 3.65234375 C-94.62235828 -1.56379591 -82.27520036 -1.99982304 -71.9140625 -3.03515625 C-70.65843506 -3.16108154 -69.40280762 -3.28700684 -68.10913086 -3.41674805 C-45.36741051 -5.54603622 -22.35357569 -4.95923699 0 0 Z M-107.8515625 3.65234375 C-103.8515625 4.65234375 -103.8515625 4.65234375 -103.8515625 4.65234375 Z "
          fill="#19ABCE" transform="translate(301.8515625,5.34765625)"/>
    <path d="M0 0 C-3.3835381 2.94367815 -6.71373898 4.03313776 -11 5.25 C-12.216875 5.60578125 -13.43375 5.9615625 -14.6875 6.328125 C-17.85578988 6.97074983 -19.04039166 6.89465285 -22 6 C-18.901466 4.79741744 -15.79541934 3.61559217 -12.6875 2.4375 C-11.80642578 2.09525391 -10.92535156 1.75300781 -10.01757812 1.40039062 C-9.17001953 1.08134766 -8.32246094 0.76230469 -7.44921875 0.43359375 C-6.27879028 -0.01415405 -6.27879028 -0.01415405 -5.0847168 -0.47094727 C-3 -1 -3 -1 0 0 Z "
          fill="#159FC1" transform="translate(178,13)"/>
    <path d="M0 0 C0.66 0.33 1.32 0.66 2 1 C-0.60238792 2.48237286 -3.20678228 3.96100131 -5.8125 5.4375 C-6.55048828 5.85837891 -7.28847656 6.27925781 -8.04882812 6.71289062 C-8.76103516 7.11572266 -9.47324219 7.51855469 -10.20703125 7.93359375 C-10.8616333 8.30540771 -11.51623535 8.67722168 -12.19067383 9.06030273 C-14 10 -14 10 -17 11 C-17.66 10.34 -18.32 9.68 -19 9 C-15.88112823 7.46635461 -12.75402378 5.95031107 -9.625 4.4375 C-8.73554688 3.99986328 -7.84609375 3.56222656 -6.9296875 3.11132812 C-6.07890625 2.70205078 -5.228125 2.29277344 -4.3515625 1.87109375 C-3.56604004 1.48880615 -2.78051758 1.10651855 -1.97119141 0.71264648 C-1.32069824 0.47747314 -0.67020508 0.2422998 0 0 Z "
          fill="#159EC0" transform="translate(154,20)"/>
    <path d="M0 0 C-2.76791945 0.86478781 -5.53865626 1.71711674 -8.3125 2.5625 C-9.09818359 2.80935547 -9.88386719 3.05621094 -10.69335938 3.31054688 C-11.45068359 3.53935547 -12.20800781 3.76816406 -12.98828125 4.00390625 C-13.68477783 4.21861572 -14.38127441 4.4333252 -15.09887695 4.65454102 C-17 5 -17 5 -20 4 C-16.7891056 1.1904674 -14.18939093 0.39935559 -10 -0.25 C-8.96875 -0.42015625 -7.9375 -0.5903125 -6.875 -0.765625 C-4.18009815 -0.98531809 -2.55199248 -0.7215129 0 0 Z "
          fill="#19AACD" transform="translate(194,11)"/>
    <path d="M0 0 C0.33 0 0.66 0 1 0 C1.33 6.27 1.66 12.54 2 19 C1.01 19 0.02 19 -1 19 C-0.67 12.73 -0.34 6.46 0 0 Z " fill="#129FC3"
          transform="translate(2,266)"/>
    <path d="M0 0 C1.11375 0.433125 2.2275 0.86625 3.375 1.3125 C3.705 2.3025 4.035 3.2925 4.375 4.3125 C0.4257432 3.76144091 -2.97420174 2.92314629 -6.625 1.3125 C-3.625 -0.6875 -3.625 -0.6875 0 0 Z "
          fill="#18AACC" transform="translate(344.625,15.6875)"/>
</svg>
