<?xml version="1.0" encoding="utf-8"?><!-- Uploaded to: SVG Repo, www.svgrepo.com, Generator: SVG Repo Mixer Tools -->
<svg width="24" height="24" viewBox="0 0 24 24" fill="none" xmlns="http://www.w3.org/2000/svg">
    <path d="M21.4898 8.99104C21.3878 7.65941 20.2653 6.63508 18.9388 6.53265C17.4082 6.43022 15.4694 6.32778 13.6327 6.22535L16.4898 3.35723C16.7959 3.04994 16.7959 2.53777 16.4898 2.23047C16.1837 1.92318 15.6735 1.92318 15.3673 2.23047L11.898 5.81562L9.34694 3.35723C9.04082 3.04994 8.53061 3.04994 8.22449 3.35723C7.91837 3.66453 7.91837 4.1767 8.22449 4.48399L10.0612 6.32778C8.32653 6.22535 6.28571 6.43022 4.7551 6.53265C4.04082 6.53265 3.53061 6.83995 3.02041 7.35211C2.61224 7.76184 2.30612 8.27401 2.30612 8.99104C2.20408 10.4251 2 12.5762 2 14.1127C2 15.6492 2.20408 17.8003 2.30612 19.2343C2.40816 20.5659 3.53061 21.5903 4.85714 21.6927C6.89796 21.7951 9.7551 22 12 22C14.2449 22 17.102 21.7951 19.1429 21.6927C20.4694 21.5903 21.5918 20.5659 21.6939 19.2343C21.7959 17.8003 22 15.6492 22 14.1127C22 12.5762 21.6939 10.4251 21.4898 8.99104ZM16.4898 12.5762L13.4286 15.6492C13.1224 15.9565 12.6122 15.9565 12.3061 15.6492L10.8776 14.2151L8.32653 16.7759C8.12245 16.8784 8.02041 16.9808 7.81633 16.9808C7.61224 16.9808 7.40816 16.8784 7.30612 16.7759C7 16.4686 7 15.9565 7.30612 15.6492L10.3673 12.5762C10.6735 12.2689 11.1837 12.2689 11.4898 12.5762L13.0204 14.1127L15.5714 11.5519C15.8776 11.2446 16.3878 11.2446 16.6939 11.5519C16.7959 11.8592 16.7959 12.2689 16.4898 12.5762Z"
          fill="currentColor"/>
</svg>